<svg width="865" height="801" viewBox="0 0 865 801" fill="none" xmlns="http://www.w3.org/2000/svg">
<path d="M480.034 308.493C480.034 308.493 445.792 250.318 431.074 223.38C416.359 196.436 398.737 160.835 337.677 142.911C276.629 124.983 232.051 117.361 217.727 107.693C203.411 98.0222 202.342 88.3566 202.342 88.3566C202.342 88.3566 196.35 106.097 242.205 135.945C288.046 165.788 430.41 244.242 434.976 252.604C439.544 260.975 460.519 289.122 466.26 299.651L480.034 308.493Z" fill="#335B41"/>
<path d="M476.7 300.924C508.864 321.428 535.418 347.124 556.694 372.587C556.847 372.712 556.981 372.86 557.113 373C555.484 365.109 553.977 355.126 553.131 342.756C553.089 342.201 553.153 341.672 553.3 341.183C553.815 339.428 555.373 338.09 557.311 337.968C559.783 337.793 561.918 339.669 562.097 342.139C564.489 377.061 572.257 392.138 572.323 392.3C572.372 392.37 572.356 392.439 572.389 392.513C606.564 438.607 622.916 479.062 623.185 479.75C624.094 482.052 622.975 484.669 620.669 485.579C618.369 486.495 615.749 485.365 614.83 483.058C614.534 482.305 593.857 431.302 550.486 379.142C545.55 375.913 517.392 357.957 492.053 350.513C489.672 349.812 488.304 347.311 489.011 344.933C489.7 342.553 492.204 341.193 494.584 341.894C507.105 345.565 520.068 351.56 530.865 357.247C513.896 339.69 494.286 322.802 471.877 308.517C468.079 306.109 464.443 303.818 460.884 301.604C458.534 300.503 430.609 287.811 404.024 288.549C401.536 288.622 399.473 286.667 399.406 284.185C399.387 283.7 399.447 283.236 399.584 282.794C400.115 280.973 401.78 279.634 403.764 279.573C411.851 279.35 419.92 280.251 427.46 281.66C373.23 250.982 359.174 252.436 357.979 252.634C355.791 253.317 353.379 252.224 352.491 250.048C352.092 249.073 352.066 248.035 352.336 247.079C352.705 245.816 353.629 244.73 354.946 244.189C358.273 242.813 379.751 239.155 476.7 300.924Z" fill="#ABC453"/>
<path d="M367.845 244.876C367.843 244.869 364.711 251.759 359.928 252.585C346.545 254.91 319.321 258.686 297.595 266.109C268.11 276.176 203.945 290.105 128.571 275.779C53.198 261.444 32.2832 252.971 32.2832 252.971C32.2832 252.971 55.5551 248.512 85.1528 232.362C114.738 216.2 184.465 170.481 228.282 183.344C269.283 195.38 318.779 220.036 360.749 243.415C360.749 243.415 364.138 244.258 367.845 244.876Z" fill="#ABC453"/>
<path d="M530.865 357.234C530.865 357.234 552.533 380.449 550.488 379.133C520.738 360.002 496.503 351.442 495.37 351.529C477.896 352.97 434.81 356.595 408.274 359.448C375.238 363.027 266.783 352.243 183.93 307.639C183.93 307.639 204.626 311.33 239.152 297.75C273.683 284.16 367.473 272.58 438.371 307.432C487.953 331.803 495.967 342.237 501.506 344.122C514.101 348.405 530.865 357.234 530.865 357.234Z" fill="#335B41"/>
<path d="M558.196 349.497C558.196 349.497 578.601 326.763 561.391 276.466C544.174 226.159 522.247 215.811 517.935 214.551C513.627 213.28 531.084 230.891 531.554 250.529C532.028 270.178 521.632 307.054 533.207 328.249C544.781 349.449 558.196 349.497 558.196 349.497Z" fill="#ABC453"/>
<path d="M422.803 289.951C422.803 289.951 380.846 312.646 349.05 330.008C317.243 347.374 271.032 369.866 216.902 360.217C162.784 350.564 134.298 335.968 134.298 335.968C134.298 335.968 189.896 333.953 217.309 318.989C244.718 304.027 287.343 268.564 320.697 268.208C342.374 267.979 400.441 277.299 427.462 281.651C427.462 281.651 424.32 289.121 422.803 289.951Z" fill="#ABC453"/>
<path d="M672.942 601.982C672.942 601.982 619.989 569.542 595.395 555.537C570.785 541.525 538.161 524.637 525.25 469.667C512.336 414.702 508.097 374.763 499.868 361.683C491.658 348.606 482.545 347.34 482.545 347.34C482.545 347.34 499.807 342.599 525.066 384.422C550.321 426.246 615.261 555.649 622.897 559.991C630.534 564.333 655.86 583.953 665.471 589.438L672.942 601.982Z" fill="#335B41"/>
<path d="M665.984 598.778C683.28 628.092 705.901 652.59 728.659 672.4C728.772 672.537 728.895 672.663 729.037 672.783C721.643 671.065 712.265 669.395 700.556 668.225C700.049 668.166 699.532 668.204 699.057 668.318C697.35 668.714 695.989 670.065 695.725 671.779C695.401 673.971 697.035 675.944 699.375 676.185C732.383 679.48 746.186 686.911 746.324 686.981C746.392 687.018 746.467 687.023 746.533 687.044C788.011 719.023 825.338 734.945 825.97 735.202C828.104 736.101 830.662 735.18 831.68 733.161C832.704 731.136 831.808 728.77 829.678 727.87C828.984 727.591 781.926 707.466 735.295 667.092C732.572 662.581 717.399 636.917 712.035 614.087C711.535 611.95 709.253 610.656 706.952 611.193C704.64 611.746 703.191 613.92 703.671 616.064C706.329 627.346 711.138 639.076 715.822 648.886C700.286 633.184 685.562 615.164 673.506 594.717C671.468 591.258 669.538 587.947 667.686 584.713C666.788 582.574 656.606 557.288 659.121 533.645C659.346 531.426 657.625 529.524 655.283 529.379C654.822 529.355 654.376 529.387 653.949 529.494C652.194 529.898 650.79 531.339 650.603 533.118C649.844 540.285 650.154 547.509 650.982 554.268C625.506 504.947 627.832 492.491 628.105 491.44C628.9 489.498 628.015 487.321 626.019 486.463C625.112 486.07 624.122 486.012 623.206 486.225C621.983 486.521 620.885 487.298 620.283 488.44C618.76 491.373 613.838 510.363 665.984 598.778Z" fill="#ABC453"/>
<path d="M620.069 499.952C620.069 499.952 626.812 497.403 627.927 493.165C631.041 481.325 636.46 457.224 644.972 438.131C656.53 412.214 674.087 355.559 665.548 287.962C657.025 220.374 650.374 201.467 650.374 201.467C650.374 201.467 644.582 222.043 627.235 247.844C609.888 273.636 561.764 334.175 571.027 373.631C579.705 410.534 599.789 455.427 619.153 493.585C619.153 493.585 619.734 496.645 620.069 499.952Z" fill="#ABC453"/>
<path d="M715.824 648.892C715.824 648.892 736.411 668.96 735.294 667.102C719.135 639.965 712.633 618.104 712.806 617.099C715.34 601.583 721.69 563.347 726.186 539.815C731.801 510.528 728.871 413.602 692.092 338.343C692.092 338.343 694.201 356.876 678.976 387.168C663.744 417.441 646.421 500.57 674.755 564.876C694.562 609.834 703.927 617.306 705.346 622.306C708.559 633.666 715.824 648.892 715.824 648.892Z" fill="#335B41"/>
<path d="M706.633 672.958C706.633 672.958 683.641 690.364 637.032 673.347C590.404 656.327 582.058 636.45 581.15 632.572C580.23 628.693 595.784 644.825 614.413 645.913C633.043 646.992 668.78 638.976 688.128 649.99C707.487 661.013 706.633 672.958 706.633 672.958Z" fill="#ABC453"/>
<path d="M659.186 550.409C659.186 550.409 683.564 513.822 702.22 486.094C720.852 458.37 745.339 417.969 739.822 369.459C734.306 320.949 722.353 295.098 722.353 295.098C722.353 295.098 716.682 344.526 700.621 368.424C684.564 392.334 648 429.088 645.409 458.771C643.736 478.065 648.675 530.085 650.983 554.281C650.98 554.274 658.301 551.727 659.186 550.409Z" fill="#ABC453"/>
</svg>
