<svg xmlns="http://www.w3.org/2000/svg">

  <!-- Телеграм  -->
  <symbol id="icon-telegram" viewBox="0 0 18 18" fill="none">
    <path fill="#fff"
      d="m1.102 7.968 10.724-4.749c1.058-.494 4.648-2.078 4.648-2.078s1.657-.692 1.518.99c-.046.693-.413 3.117-.782 5.74l-1.15 7.766s-.092 1.137-.874 1.334c-.782.198-2.072-.692-2.302-.891-.184-.149-3.45-2.373-4.647-3.461-.324-.297-.69-.892.046-1.584a176.576 176.576 0 0 0 4.83-4.946c.553-.595 1.103-1.98-1.196-.297l-6.488 4.7s-.736.495-2.117.048c-1.38-.443-2.99-1.038-2.99-1.038s-1.106-.743.78-1.534Z" />
  </symbol>

  <!-- ватсап  -->
  <symbol id="icon-whatsapp" viewBox="0 0 18 18" fill="none">
    <g clip-path="url(#a)">
      <path fill="#fff"
        d="M17.305 5.362a8.84 8.84 0 0 0-1.896-2.789A8.888 8.888 0 0 0 12.598.69 8.862 8.862 0 0 0 9.16 0a8.858 8.858 0 0 0-3.438.69 8.888 8.888 0 0 0-2.811 1.883 8.79 8.79 0 0 0-1.896 2.789 8.673 8.673 0 0 0-.618 4.577 8.756 8.756 0 0 0 1.134 3.273l-.379 1.12-.38 1.119-.379 1.12-.38 1.12a.221.221 0 0 0-.007.127.215.215 0 0 0 .061.112.205.205 0 0 0 .036.03.181.181 0 0 0 .041.022.32.32 0 0 0 .09.018l.018-.001a.11.11 0 0 0 .018-.002l.018-.003.018-.005 1.167-.371 1.167-.371 1.168-.371 1.167-.371a8.896 8.896 0 0 0 4.185 1.042 8.844 8.844 0 0 0 8.145-5.361A8.683 8.683 0 0 0 18 8.774a8.69 8.69 0 0 0-.695-3.412Zm-3.543 5.747a3.03 3.03 0 0 1-.16.706 1.25 1.25 0 0 1-.284.432 2.421 2.421 0 0 1-.444.357c-.162.103-.33.188-.486.25a1.52 1.52 0 0 1-.408.11l-.016.001-.016.002-.017.002-.017.001-.078.008-.086.007a2.437 2.437 0 0 1-.196.007 2.78 2.78 0 0 1-.313-.018 3.989 3.989 0 0 1-.447-.075 6.994 6.994 0 0 1-.621-.171 12.409 12.409 0 0 1-.834-.303 6.188 6.188 0 0 1-.983-.505 7.729 7.729 0 0 1-.954-.713 9.545 9.545 0 0 1-.902-.898 11.134 11.134 0 0 1-.827-1.067l-.013-.017a.372.372 0 0 1-.01-.016l-.008-.012-.007-.009a5.423 5.423 0 0 1-.556-.912 3.95 3.95 0 0 1-.248-.661 2.795 2.795 0 0 1-.104-.732c0-.278.034-.526.088-.745.054-.219.131-.408.217-.569.087-.162.183-.294.278-.398.094-.104.187-.182.265-.231.074-.047.171-.087.278-.122.106-.034.222-.063.332-.086a4.753 4.753 0 0 1 .481-.073l.055-.003.024-.001h.022c.065 0 .125.01.182.029a.535.535 0 0 1 .157.092.764.764 0 0 1 .135.154c.042.062.08.137.115.221l.121.291.211.509.206.493c.058.137.098.232.106.247.009.019.024.047.038.083a.629.629 0 0 1 .04.299.619.619 0 0 1-.06.195l-.008.014-.007.015-.007.015-.008.014c-.014.029-.027.057-.041.083a1.177 1.177 0 0 1-.1.166c-.021.028-.044.059-.071.09l-.026.03-.028.033a.712.712 0 0 0-.026.031l-.027.032-.056.067-.057.067-.056.063-.055.057-.021.021-.024.027a.225.225 0 0 0-.021.024.058.058 0 0 0-.01.019v.003l.002.01c.001.004.003.01.007.016a4.358 4.358 0 0 0 .285.406c.143.183.334.408.565.646.231.237.502.486.802.714a4.816 4.816 0 0 0 1.049.615l.09.037.08.031a.444.444 0 0 0 .039.014c.004 0 .008-.002.012-.004l.014-.01a.192.192 0 0 1 .014-.013l.012-.014.135-.156c.057-.065.123-.143.188-.222a7.81 7.81 0 0 0 .328-.419.68.68 0 0 1 .199-.196.457.457 0 0 1 .244-.067.549.549 0 0 1 .157.022l.075.021.072.024c.059.021.185.077.341.15a84.02 84.02 0 0 1 1.01.485l.229.111.122.061c.037.02.073.039.105.061a.444.444 0 0 1 .158.156.495.495 0 0 1 .057.2 1.4 1.4 0 0 1 .002.291Z" />
    </g>
    <defs>
      <clipPath id="a">
        <path fill="#fff" d="M0 0h18v18H0z" />
      </clipPath>
    </defs>
  </symbol>

  <!-- стрелочка вправо  -->
  <symbol id="arrow" viewBox="0 0 9 14" fill="none">
    <path stroke="currentColor" stroke-linecap="round" stroke-width="2" d="m1 1 6 6-6 6" />
  </symbol>

  <!-- загрузка  -->
  <symbol id="download" viewBox="0 0 16 16" fill="none">
    <path stroke="currentColor" stroke-linecap="round" stroke-width="2"
      d="m12 7-4 4m0 0L4 7m4 4V1M1 13v1a1 1 0 0 0 1 1h12a1 1 0 0 0 1-1v-1" />
  </symbol>

  <!-- Галстук  -->
  <symbol id="tie" viewBox="0 0 40 40" fill="none">
    <path fill="currentColor"
      d="M20 11.2h-6.4a.8.8 0 0 1-.772-.59l-2.4-8.8A.8.8 0 0 1 11.2.8h11.2a.8.8 0 0 1 .772 1.01l-2.4 8.8a.8.8 0 0 1-.772.59Zm-5.789-1.6h5.179l1.964-7.2h-9.107l1.964 7.2Z" />
    <path fill="currentColor"
      d="M16.8 39.2a.798.798 0 0 1-.566-.234l-8-8a.802.802 0 0 1-.212-.752l4.8-20A.8.8 0 0 1 13.6 9.6H20a.8.8 0 0 1 .778.614l4.8 20a.802.802 0 0 1-.212.752l-8 8a.798.798 0 0 1-.566.234Zm-7.118-9.05 7.118 7.119 7.118-7.118L19.37 11.2h-5.138L9.682 30.15ZM30.4 30.4a.793.793 0 0 1-.194-.024l-3.2-.8.388-1.551 2.424.605.528-2.109-8.638-14.92 1.384-.802 8.8 15.2c.103.18.134.393.083.595l-.8 3.2a.798.798 0 0 1-.775.606Z" />
  </symbol>
  <!-- car -->
  <symbol id="car" viewBox="0 0 40 40" fill="none">
    <path fill="currentColor"
      d="M35.998 29.6h-1.6V28h1.6a.8.8 0 0 0 .8-.803v-5.43c0-.641-.268-.967-.8-.967h-1.27l-2.951-5.313c-.111-.156-.359-.287-.624-.287h-6.355v-1.6h6.355a2.4 2.4 0 0 1 1.983 1.047l2.533 4.553h.329c1.436 0 2.4 1.032 2.4 2.566v5.43a2.404 2.404 0 0 1-2.4 2.404Z" />
    <path fill="currentColor"
      d="M25.598 29.6H12V28h11.998V8.8H13.6V7.2h11.998v22.4ZM5.6 28h-4v1.6h4V28ZM31.192 32.8c-2.21 0-4.008-1.79-4.008-3.992s1.798-3.994 4.008-3.994a4.004 4.004 0 0 1 4.006 3.994 4.002 4.002 0 0 1-4.006 3.992Zm0-6.386a2.405 2.405 0 0 0-2.408 2.394 2.405 2.405 0 0 0 2.408 2.392 2.403 2.403 0 0 0 2.406-2.392 2.403 2.403 0 0 0-2.406-2.394Z" />
    <path fill="currentColor"
      d="M8.807 32.8c-2.209 0-4.007-1.79-4.007-3.992s1.798-3.994 4.007-3.994a4.005 4.005 0 0 1 4.007 3.994c0 2.202-1.797 3.992-4.007 3.992Zm0-6.386A2.403 2.403 0 0 0 6.4 28.808 2.403 2.403 0 0 0 8.807 31.2a2.403 2.403 0 0 0 2.407-2.392 2.403 2.403 0 0 0-2.407-2.394ZM27.998 28h-3.2v1.6h3.2V28ZM32.187 21.6h-5.789V20h5.412l1.6-.8h1.788v1.6h-1.411l-1.6.8ZM13.6 19.2H0v1.6h13.6v-1.6ZM20.799 11.2H2.4v1.6h18.399v-1.6ZM19.2 15.2h-12v1.6h12v-1.6ZM5.6 15.2H4v1.6h1.6v-1.6ZM12 7.2h-1.6v1.6H12V7.2Z" />
  </symbol>

  <!-- деньги  -->
  <symbol id="money" viewBox="0 0 40 40" fill="none">
    <g clip-path="url(#clip0_21_951)">
      <path
        d="M22.4 32.961C22.269 32.961 22.137 32.928 22.017 32.862C21.76 32.723 21.6 32.453 21.6 32.161V22.775L8.77998 14.11C8.55398 13.958 8.42198 13.7 8.42898 13.427C8.43598 13.154 8.58198 12.904 8.81498 12.762L14.744 9.18601C15.003 9.03001 15.326 9.03402 15.582 9.19402L29.225 17.756C29.458 17.903 29.6 18.159 29.6 18.434V28.033C29.6 28.305 29.462 28.558 29.234 28.706L22.834 32.833C22.702 32.917 22.55 32.961 22.4 32.961ZM10.714 13.486L22.847 21.686C23.067 21.834 23.199 22.084 23.199 22.35V30.692L27.999 27.597V18.877L15.149 10.811L10.714 13.486Z"
        fill="currentColor" />
      <path
        d="M13.6 28.8C13.453 28.8 13.306 28.759 13.176 28.678L0.376005 20.678C0.142005 20.532 -0.00099479 20.275 5.21056e-06 19.998C0.00100521 19.722 0.144005 19.466 0.379005 19.319L9.84 13.465C10.216 13.233 10.709 13.348 10.942 13.724C11.174 14.1 11.058 14.593 10.682 14.826L2.31501 20.003L13.598 27.054L21.972 21.75C22.346 21.514 22.84 21.625 23.076 21.998C23.313 22.372 23.202 22.866 22.828 23.103L14.028 28.677C13.898 28.759 13.749 28.8 13.6 28.8Z"
        fill="currentColor" />
      <path
        d="M13.6 32.8C13.453 32.8 13.306 32.759 13.176 32.678L0.376027 24.678C0.00102651 24.446 -0.112973 23.952 0.122027 23.577C0.356027 23.202 0.850027 23.088 1.22403 23.322L13.598 31.055L21.972 25.752C22.346 25.514 22.84 25.626 23.076 25.999C23.313 26.373 23.202 26.866 22.828 27.104L14.028 32.678C13.898 32.759 13.749 32.8 13.6 32.8Z"
        fill="currentColor" />
      <path
        d="M13.6 36.8C13.453 36.8 13.306 36.759 13.176 36.678L0.376027 28.678C0.00102651 28.446 -0.112973 27.952 0.122027 27.577C0.356027 27.202 0.850027 27.086 1.22403 27.322L13.598 35.055L21.972 29.752C22.346 29.516 22.84 29.627 23.076 29.999C23.313 30.373 23.202 30.866 22.828 31.104L14.028 36.678C13.898 36.759 13.749 36.8 13.6 36.8Z"
        fill="currentColor" />
      <path
        d="M28.756 19.202C28.491 19.202 28.232 19.07 28.079 18.83C27.842 18.456 27.954 17.962 28.327 17.726L36.098 12.804L24.806 5.747L16.482 11.098C16.11 11.336 15.615 11.229 15.376 10.857C15.137 10.485 15.245 9.99 15.617 9.751L24.367 4.127C24.627 3.961 24.961 3.958 25.224 4.122L38.024 12.122C38.257 12.267 38.399 12.522 38.4 12.798C38.401 13.073 38.26 13.329 38.028 13.476L29.183 19.078C29.05 19.161 28.902 19.202 28.756 19.202Z"
        fill="currentColor" />
      <path
        d="M28.803 23.172C28.538 23.172 28.279 23.041 28.126 22.8C27.89 22.426 28.001 21.933 28.374 21.695L37.172 16.124C37.546 15.889 38.04 15.999 38.276 16.372C38.513 16.746 38.402 17.239 38.028 17.476L29.23 23.049C29.098 23.133 28.95 23.172 28.803 23.172Z"
        fill="currentColor" />
      <path
        d="M28.801 27.174C28.536 27.174 28.277 27.042 28.124 26.802C27.887 26.428 27.998 25.934 28.372 25.698L37.172 20.124C37.546 19.888 38.04 20 38.276 20.372C38.513 20.746 38.402 21.239 38.028 21.475L29.228 27.05C29.095 27.134 28.947 27.174 28.801 27.174Z"
        fill="currentColor" />
    </g>
    <defs>
      <clipPath id="clip0_21_951">
        <rect width="40" height="40" fill="white" />
      </clipPath>
    </defs>
  </symbol>

  <!-- рукопожатие  -->
  <symbol id="handshake" viewBox="0 0 40 40" fill="none">
    <path
      d="M30.777 23.217C30.366 23.217 29.994 23.078 29.691 22.809C28.066 21.375 25.178 18.415 23.07 16.254C22.345 15.51 21.727 14.879 21.318 14.469C20.935 14.086 18.793 14.546 17.641 14.792C16.893 14.951 16.121 15.117 15.438 15.204C13.601 15.437 11.661 14.284 10.855 13.033C10.238 12.074 10.473 11.398 10.669 11.081C11.518 9.70203 19.818 7.22603 20.808 7.46503C21.114 7.54103 21.638 7.75103 22.535 8.11603C23.471 8.49703 25.357 9.26303 25.986 9.34203C26.431 9.02603 27.752 7.89403 28.843 6.91803L29.91 8.11003C26.85 10.85 26.566 10.894 26.315 10.931C25.633 11.04 24.411 10.606 21.932 9.59803C21.293 9.33803 20.632 9.07003 20.422 9.01803C19.506 9.00603 13.084 11.105 12.068 11.902C12.11 12.046 12.28 12.352 12.672 12.7C13.237 13.201 14.245 13.741 15.236 13.616C15.851 13.538 16.558 13.386 17.305 13.226C19.438 12.77 21.45 12.339 22.449 13.337C22.862 13.75 23.483 14.387 24.214 15.136C26.305 17.28 29.17 20.215 30.75 21.61C31.426 21.806 34.178 19.01 36.703 15.081L38.049 15.946C37.31 17.097 33.494 22.858 31.042 23.198C30.952 23.211 30.863 23.217 30.777 23.217Z"
      fill="currentColor" />
    <path fill-rule="evenodd" clip-rule="evenodd"
      d="M20.287 30.283L17.695 27.652L16.556 28.774L19.148 31.405L20.287 30.283Z" fill="currentColor" />
    <path fill-rule="evenodd" clip-rule="evenodd"
      d="M24.604 28.881L20.063 23.98L18.889 25.067L23.43 29.969L24.604 28.881Z" fill="currentColor" />
    <path fill-rule="evenodd" clip-rule="evenodd"
      d="M28.494 26.594L23.103 21.009L21.952 22.12L27.343 27.706L28.494 26.594Z" fill="currentColor" />
    <path
      d="M11.71 32.092C11.07 32.092 10.466 31.842 10.013 31.389L2.06301 23.438C1.12701 22.502 1.12801 20.98 2.06301 20.044L3.48501 18.623C4.35201 17.755 5.90901 17.873 6.91401 18.878C7.42001 19.384 7.70801 19.988 7.76901 20.579C8.37501 20.644 8.98301 20.946 9.46801 21.431C9.97401 21.937 10.262 22.541 10.322 23.132C10.929 23.197 11.537 23.499 12.022 23.984C12.527 24.49 12.814 25.094 12.876 25.685C13.482 25.75 14.09 26.052 14.575 26.537C15.625 27.586 15.734 29.061 14.83 29.966L13.408 31.387C12.954 31.842 12.351 32.092 11.71 32.092ZM4.97301 19.614C4.82801 19.614 4.71101 19.661 4.61701 19.755L3.19401 21.177C2.88201 21.489 2.88201 21.995 3.19401 22.308L11.144 30.258C11.446 30.561 11.974 30.561 12.275 30.258L13.698 28.837C13.994 28.541 13.787 28.015 13.442 27.67C13.056 27.283 12.539 27.15 12.276 27.415C11.963 27.728 11.457 27.728 11.144 27.415C10.988 27.259 10.91 27.054 10.91 26.85C10.91 26.645 10.988 26.44 11.143 26.284C11.439 25.988 11.233 25.462 10.888 25.118C10.5 24.73 9.98501 24.598 9.72201 24.862C9.40901 25.175 8.90201 25.175 8.59001 24.862C8.43401 24.706 8.35501 24.502 8.35501 24.297C8.35501 24.092 8.43401 23.887 8.58901 23.731C8.88501 23.435 8.67801 22.91 8.33401 22.566C7.94601 22.178 7.43001 22.046 7.16701 22.31C6.85401 22.622 6.34801 22.622 6.03501 22.31C5.87901 22.154 5.80101 21.949 5.80101 21.744C5.80101 21.539 5.87901 21.334 6.03401 21.178C6.33001 20.882 6.12401 20.357 5.77901 20.012C5.53401 19.762 5.23201 19.614 4.97301 19.614Z"
      fill="currentColor" />
    <path
      d="M17.07 33.6C16.417 33.6 15.549 33.368 14.646 32.466L12.922 30.734L14.06 29.611L15.778 31.334C16.274 31.83 16.76 32.05 17.218 31.99C17.835 31.909 18.51 31.331 19.026 30.443C19.239 30.075 19.705 29.938 20.084 30.134C20.766 30.485 21.407 30.399 21.826 30.265C22.462 30.061 23.028 29.599 23.305 29.058C23.503 28.67 23.977 28.511 24.37 28.706C25.186 29.109 25.859 28.831 26.282 28.527C26.89 28.09 27.154 27.468 27.126 27.258C27.094 27.037 27.158 26.813 27.3 26.641C27.442 26.469 27.649 26.362 27.871 26.35C28.739 26.299 29.505 25.78 29.87 24.995C30.22 24.245 30.114 23.403 29.58 22.688L30.862 21.73C31.746 22.914 31.918 24.386 31.322 25.67C30.806 26.778 29.817 27.571 28.651 27.848C28.463 28.564 27.942 29.304 27.217 29.826C26.337 30.459 25.32 30.654 24.338 30.395C23.835 31.031 23.117 31.532 22.317 31.789C21.558 32.034 20.768 32.043 20.031 31.828C19.3 32.826 18.376 33.453 17.426 33.577C17.316 33.59 17.198 33.6 17.07 33.6Z"
      fill="currentColor" />
    <path
      d="M2.708 20.422C2.399 20.046 1.864 19.321 1.58 18.506L0 16.87L1.151 15.758L2.86 17.53C2.95 17.622 3.016 17.737 3.052 17.862C3.184 18.313 3.509 18.878 3.944 19.406L2.708 20.422Z"
      fill="currentColor" />
    <path fill-rule="evenodd" clip-rule="evenodd"
      d="M12.023 10.811L9.145 7.93103L8.013 9.06203L10.892 11.942L12.023 10.811Z" fill="currentColor" />
    <path fill-rule="evenodd" clip-rule="evenodd"
      d="M7.17901 22.298L6.03001 21.186L3.51801 23.78L4.66701 24.893L7.17901 22.298Z" fill="currentColor" />
    <path fill-rule="evenodd" clip-rule="evenodd"
      d="M7.17901 22.298L6.03001 21.186L3.51801 23.78L4.66701 24.893L7.17901 22.298Z" fill="currentColor" />
    <path fill-rule="evenodd" clip-rule="evenodd"
      d="M9.73201 24.85L8.58301 23.738L6.07101 26.333L7.22001 27.445L9.73201 24.85Z" fill="currentColor" />
    <path fill-rule="evenodd" clip-rule="evenodd"
      d="M12.285 27.404L11.136 26.292L8.625 28.887L9.774 29.999L12.285 27.404Z" fill="currentColor" />
  </symbol>

  <!-- копилка-хрюшка  -->
  <symbol id="piggy-bank" viewBox="0 0 40 40" fill="none">
    <path
      d="M28.797 37.6H26.397C26.098 37.6 25.823 37.433 25.686 37.167L24.367 34.612C22.833 35.007 21.134 35.2 19.198 35.2C17.653 35.2 15.558 34.93 14.019 34.546L12.714 37.158C12.578 37.429 12.3 37.6 11.998 37.6H9.59802C9.15602 37.6 8.79802 37.242 8.79802 36.8V31.983C6.85802 31.07 2.03002 27.958 1.12602 26.236C0.31002 24.678 -0.43198 21.882 0.29802 20.683C0.54702 20.274 0.95602 20.039 1.42102 20.039C1.45002 20.041 1.48302 20.039 1.51402 20.039C2.42202 20.039 3.12602 19.939 3.69702 19.727C4.23302 18.636 4.98102 17.685 5.89202 16.934C4.62402 14.692 4.12502 13.504 4.71802 12.758C5.11802 12.252 5.84402 12.278 6.08602 12.286C7.23402 12.324 9.08602 12.898 10.591 13.827C13.164 12.614 15.807 12 18.456 12C26.805 12 33.597 17.024 33.597 23.2C33.597 26.371 32.561 29.084 30.597 31.066L29.586 36.936C29.519 37.319 29.186 37.6 28.797 37.6ZM26.884 36H28.123L29.064 30.541C29.094 30.372 29.177 30.218 29.3 30.098C31.09 28.386 31.997 26.066 31.997 23.2C31.997 17.996 25.796 13.6 18.456 13.6C16.298 13.6 14.139 14.05 12.021 14.942C12.21 15.136 12.378 15.338 12.522 15.546L11.206 16.454C10.188 14.978 7.29802 13.988 6.15702 13.886C6.42602 14.66 7.27402 16.134 7.63102 16.752C7.84002 17.115 7.73402 17.578 7.38702 17.814C6.36602 18.507 5.54702 19.496 5.02202 20.673C4.94302 20.85 4.80302 20.991 4.62802 21.073C3.81902 21.449 2.86002 21.63 1.62102 21.64C1.49702 22.209 1.75702 23.994 2.54302 25.493C3.33602 27.005 8.97902 30.45 9.75802 30.663C10.106 30.757 10.398 31.085 10.398 31.446V36H11.503L12.882 33.242C13.058 32.892 13.461 32.721 13.833 32.836C15.226 33.264 17.582 33.6 19.198 33.6C21.249 33.6 22.998 33.371 24.547 32.9C24.914 32.787 25.313 32.955 25.491 33.298L26.884 36Z"
      fill="currentColor" />
    <path
      d="M29.597 24C29.155 24 28.797 23.642 28.797 23.2C28.797 20.379 24.654 16.8 19.997 16.8C19.555 16.8 19.197 16.442 19.197 16C19.197 15.558 19.555 15.2 19.997 15.2C25.245 15.2 30.397 19.162 30.397 23.2C30.397 23.642 30.039 24 29.597 24Z"
      fill="currentColor" />
    <path d="M9.59799 20H7.99799V21.6H9.59799V20Z" fill="currentColor" />
    <path
      d="M22.57 11.734L21.378 10.666C22.036 9.93303 22.397 8.98602 22.397 8.00002C22.397 5.79402 20.602 4.00002 18.397 4.00002C16.191 4.00002 14.397 5.79402 14.397 8.00002C14.397 8.98602 14.758 9.93303 15.415 10.666L14.223 11.734C13.303 10.706 12.797 9.38002 12.797 8.00002C12.797 4.91202 15.309 2.40002 18.397 2.40002C21.485 2.40002 23.997 4.91202 23.997 8.00002C23.997 9.38002 23.49 10.706 22.57 11.734Z"
      fill="currentColor" />
    <path
      d="M36.38 24.066C36.252 24.066 36.122 24.05 35.993 24.02C35.427 23.886 34.98 23.478 34.797 22.926L34.257 22.227L34.701 22.893L33.242 23.866C32.874 24.111 32.378 24.011 32.132 23.644C31.887 23.277 31.986 22.78 32.354 22.534L33.813 21.562C34.248 21.272 34.782 21.203 35.275 21.373C35.77 21.542 36.149 21.924 36.314 22.421L36.421 22.446L37.032 21.834C37.345 21.522 37.85 21.522 38.163 21.834C38.476 22.147 38.476 22.653 38.163 22.966L37.552 23.577C37.234 23.894 36.815 24.066 36.38 24.066Z"
      fill="currentColor" />
  </symbol>

  <!-- планшет  -->
  <symbol id="tablet" viewBox="0 0 40 40" fill="none">
    <path
      d="M33 39.2001H7.4C6.077 39.2001 5 38.123 5 36.8V7.20005C5 5.87705 6.077 4.80005 7.4 4.80005H10.6V6.40005H7.4C6.959 6.40005 6.6 6.75905 6.6 7.20005V36.8C6.6 37.2421 6.959 37.6 7.4 37.6H33C33.442 37.6 33.8 37.2421 33.8 36.8V7.20005C33.8 6.75905 33.442 6.40005 33 6.40005H29.8V4.80005H33C34.323 4.80005 35.4 5.87705 35.4 7.20005V36.8C35.4 38.123 34.323 39.2001 33 39.2001Z"
      fill="currentColor" />
    <path d="M32.2 36H8.20001V8H10.6V9.6H9.80001V34.4H30.6V9.6H29.8V8H32.2V36Z" fill="currentColor" />
    <path
      d="M29 10.4H11.4V7.20005C11.4 5.43505 12.835 4.00005 14.6 4.00005H16.281C16.652 2.17705 18.268 0.800049 20.2 0.800049C22.132 0.800049 23.748 2.17705 24.119 4.00005H25.8C27.565 4.00005 29 5.43505 29 7.20005V10.4ZM13 8.80005H27.4V7.20005C27.4 6.31805 26.682 5.60005 25.8 5.60005H22.6V4.80005C22.6 3.47705 21.523 2.40005 20.2 2.40005C18.877 2.40005 17.8 3.47705 17.8 4.80005V5.60005H14.6C13.718 5.60005 13 6.31805 13 7.20005V8.80005Z"
      fill="currentColor" />
    <path d="M21 4H19.4V5.6H21V4Z" fill="currentColor" />
    <path
      d="M18.6 28C18.414 28 18.233 27.935 18.088 27.815L13.288 23.815L14.312 22.586L18.473 26.054L25.966 16.313L27.234 17.289L19.234 27.689C19.102 27.862 18.905 27.972 18.688 27.997C18.658 27.998 18.63 28 18.6 28Z"
      fill="currentColor" />
  </symbol>

  <!-- 25 лет -->
  <symbol id="25-years" viewBox="0 0 40 40" fill="none">
    <path fill="#fff"
      d="M23.791 17.798a7.8 7.8 0 0 1 1.102-.353 4.452 4.452 0 0 1 1.125-.132c.705 0 1.36.118 1.962.353.602.22 1.124.55 1.565.992.456.426.808.94 1.058 1.543.265.602.397 1.279.397 2.028 0 .911-.154 1.72-.463 2.425a4.985 4.985 0 0 1-1.235 1.786 5.394 5.394 0 0 1-1.83 1.124c-.69.25-1.432.375-2.226.375-.676 0-1.3-.096-1.874-.287a4.986 4.986 0 0 1-1.455-.815 3.957 3.957 0 0 1-.992-1.213c-.235-.47-.36-.97-.375-1.499h1.61c.014.397.095.772.242 1.124.147.338.346.64.595.904.265.25.581.448.948.595.368.147.787.22 1.257.22.426 0 .852-.08 1.279-.242a3.229 3.229 0 0 0 1.146-.815c.353-.382.632-.86.838-1.433.22-.588.33-1.294.33-2.117 0-1.16-.308-2.101-.926-2.821-.617-.72-1.543-1.08-2.777-1.08-.294 0-.698.029-1.213.088-.514.058-1.087.25-1.72.573l1.963-6.856h6.68l-.441 1.212H25.07l-1.279 4.321ZM19.229 27.696H9.089l4.166-4.651c.367-.441.757-.919 1.168-1.433.426-.515.816-1.058 1.168-1.632.353-.573.647-1.168.882-1.785.236-.617.353-1.25.353-1.896 0-1.014-.272-1.823-.816-2.425-.529-.603-1.212-.904-2.05-.904-.5 0-.918.095-1.256.287a2.55 2.55 0 0 0-.816.771c-.206.309-.36.676-.463 1.102a8.887 8.887 0 0 0-.22 1.301H9c0-.617.125-1.198.375-1.742a4.283 4.283 0 0 1 1.036-1.41 5.014 5.014 0 0 1 1.587-.926A5.35 5.35 0 0 1 13.96 12c.794 0 1.507.118 2.139.353.632.22 1.16.529 1.587.926.426.396.75.86.97 1.389.235.514.353 1.058.353 1.63 0 .721-.074 1.338-.22 1.853a5.198 5.198 0 0 1-.662 1.499c-.294.47-.684.97-1.169 1.499-.47.529-1.043 1.16-1.72 1.896l-2.865 3.064h6.856v1.587Z" />
    <circle cx="20" cy="20" r="19" stroke="#fff" stroke-width="2" />
  </symbol>

  <!-- мужик  -->
  <symbol id="guy" viewBox="0 0 40 40" fill="none">
    <path stroke="#fff" stroke-miterlimit="10" stroke-width="2"
      d="M15.2 22.575v3.319h-.8L12 28.383 7.993 30.34C5.833 30.92 4.04 32.552 4 34.19V40" />
    <path stroke="#fff" stroke-miterlimit="10" stroke-width="2"
      d="M28 8.468v1.66l1.6.83v3.26c0 .556-.267 1.073-.713 1.381L28 16.766v1.66c0 3.215-4.1 4.616-4.8 4.978-.7.363-1.9.83-3.2.83-1.3 0-2.5-.467-3.2-.83-.7-.362-4.8-1.763-4.8-4.979v-1.659l-.887-1.167a1.676 1.676 0 0 1-.713-1.38v-3.262l1.6-.83V8.469C12 4.343 15.223 1 19.2 1h1.6C24.777 1 28 4.343 28 8.468ZM15.2 25.894l4.8 4.149M20 30.043l-4 3.319-4-4.979" />
    <path stroke="#fff" stroke-miterlimit="10" stroke-width="2"
      d="M24.8 22.575v3.319h.8l2.4 2.489 4.007 1.957c2.16.58 3.952 2.212 3.993 3.851V40M24.8 25.894 20 30.043" />
    <path stroke="#fff" stroke-miterlimit="10" stroke-width="2" d="m20 30.043 4 3.319 4-4.979" />
    <path stroke="#fff" stroke-miterlimit="10" stroke-width="2" d="m22.4 31.702-.8 4.15h-3.2l-.8-4.15" />
    <path stroke="#fff" stroke-miterlimit="10" stroke-width="2" d="m22.4 39.17-.8-3.319h-3.2l-.8 3.32" />
  </symbol>

  <!-- грузовик поворачивает  -->
  <symbol id="truck-turns" viewBox="0 0 40 40" fill="none">
    <path stroke="#fff" stroke-miterlimit="10" stroke-width="2"
      d="M6.783 27.412H4.304M4.304 20.824 1 20v-3.294M15.87 28.235v-4.117H8.435v4.117M17.522 27.412H20M20 20.824 23.304 20v-3.294M2.652 30.706v2.47c0 .456.37.824.826.824h2.479a.825.825 0 0 0 .826-.824v-2.47M17.522 30.706v2.47c0 .456.37.824.826.824h2.478a.825.825 0 0 0 .826-.824v-2.47M33.217 30.706v2.47c0 .456.37.824.826.824h2.479a.825.825 0 0 0 .826-.824v-2.47M17.522 16.706H6.782v4.118h10.74v-4.118Z" />
    <path stroke="#fff" stroke-miterlimit="10" stroke-width="2"
      d="M20 9.294v12.353l.826.824c.413.411.827.9.826 1.647 0 .593.003 2.42 0 3.294h1.652v3.294H1v-3.294h1.652c-.002-.875 0-2.701 0-3.294 0-.746.413-1.236.826-1.647l.826-.824V9.294" />
    <path stroke="#fff" stroke-miterlimit="10" stroke-width="2"
      d="m20 14.235-1.015-.94c-.607-.7-1.362-.707-2.29-.707H7.61c-.928 0-1.682.007-2.29.707l-1.015.94" />
    <path stroke="#fff" stroke-miterlimit="10" stroke-width="2"
      d="M1 15.059V6h22.304v9.059M23.304 6h.827L39 15.882v14.824H24.957" />
  </symbol>

  <!-- кошелёк  -->
  <symbol id="wallet" viewBox="0 0 40 40" fill="none">
    <path stroke="#fff" stroke-linecap="round" stroke-linejoin="round" stroke-miterlimit="10" stroke-width="2"
      d="M11.364 9.024H3.588C2.118 9.024 1 10.171 1 11.66M32.955 14.293V9.024h-7.773M30.364 14.293 18.273 2 6.182 14.293" />
    <path stroke="#fff" stroke-linecap="round" stroke-linejoin="round" stroke-miterlimit="10" stroke-width="2"
      d="m24.318 14.293-4.207-4.3c-1.22 1.242-2.442 1.244-3.664.002l-4.226 4.298" />
    <path stroke="#fff" stroke-linecap="round" stroke-linejoin="round" stroke-miterlimit="10" stroke-width="2"
      d="M37.273 30.976V38H3.59C2.12 38 1 36.853 1 35.366V11.658c0 1.488 1.121 2.635 2.59 2.635h33.683v6.146" />
    <path stroke="#fff" stroke-linecap="round" stroke-linejoin="round" stroke-miterlimit="10" stroke-width="2"
      d="M26.91 22.195c-2.625 0-4.32 1.965-4.32 4.39 0 2.426 1.695 4.39 4.32 4.39h9.5c1.43 0 2.59-1.178 2.59-2.633v-7.025a.87.87 0 0 0-.864-.878h-.863c0 .934-.945 1.756-1.728 1.756H26.91Z" />
    <path stroke="#fff" stroke-miterlimit="10" stroke-width="2" d="M26.045 26.585h1.728" />
  </symbol>

  <!-- общение  -->
  <symbol id="communication" viewBox="0 0 40 40" fill="none">
    <path stroke="#fff" stroke-linejoin="round" stroke-miterlimit="10" stroke-width="2"
      d="M30.286 11.133c2.497 0 4.285-1.824 4.285-4.222V5.222C34.571 2.824 32.783 1 30.286 1S26 2.824 26 5.222v1.69c0 2.397 1.789 4.221 4.286 4.221Z" />
    <path stroke="#fff" stroke-miterlimit="10" stroke-width="2"
      d="m27.714 27.178 3.429 3.378-3.429 3.378M31.143 30.555H8.857M12.286 21.267l-3.429 3.377 3.429 3.378M8.857 24.645h22.286" />
    <path stroke="#fff" stroke-linejoin="round" stroke-miterlimit="10" stroke-width="2"
      d="M17.429 21.267v-4.223c0-2.34-5.034-3.378-7.715-3.378-2.68 0-7.714 1.038-7.714 3.378v9.29l2.571 2.532V39h8.572v-3.378M22.571 21.267v-4.223c0-2.34 5.034-3.378 7.715-3.378 2.68 0 7.714 1.038 7.714 3.378v9.29l-2.571 2.532V39h-8.572v-3.378M9.714 11.133c-2.497 0-4.285-1.824-4.285-4.222V5.222C5.429 2.824 7.217 1 9.714 1S14 2.824 14 5.222v1.69c0 2.397-1.789 4.221-4.286 4.221Z" />
  </symbol>

  <!-- две геометки  -->
  <symbol id="two-marker" viewBox="0 0 40 40" fill="none">
    <path stroke="#fff" stroke-linejoin="round" stroke-miterlimit="10" stroke-width="2"
      d="M27.845 14.117C27.566 7.007 21.273 1 14.428 1 7.424 1 1 7.285 1 14.608c0 10.445 10.054 12.807 13.428 24.193 1.386-4.678 3.9-7.832 6.38-10.65" />
    <path stroke="#fff" stroke-linejoin="round" stroke-miterlimit="10" stroke-width="2"
      d="M14.446 19.108c2.482 0 4.494-2.023 4.494-4.517 0-2.495-2.012-4.517-4.494-4.517-2.482 0-4.495 2.022-4.495 4.517 0 2.494 2.013 4.517 4.495 4.517ZM30.814 39C32.87 32.058 39 30.619 39 24.25c0-4.464-3.917-8.296-8.186-8.296-4.27 0-8.187 3.832-8.187 8.296 0 6.369 6.129 7.808 8.187 14.75Z" />
    <path stroke="#fff" stroke-linejoin="round" stroke-miterlimit="10" stroke-width="2"
      d="M30.825 26.994a2.747 2.747 0 0 0 2.74-2.755 2.747 2.747 0 0 0-2.74-2.754 2.747 2.747 0 0 0-2.74 2.754 2.747 2.747 0 0 0 2.74 2.755Z" />
  </symbol>

  <!-- иконка папки  -->
  <symbol id="download-folder" viewBox="0 0 34 42" fill="none">
    <path fill="#FCFAF6" d="M1 21V3a2 2 0 0 1 2-2h22l8 8v30a2 2 0 0 1-2 2H3a2 2 0 0 1-2-2v-3" />
    <path stroke="#D7D7D8" stroke-miterlimit="10" stroke-width="2"
      d="M1 21V3a2 2 0 0 1 2-2h22l8 8v30a2 2 0 0 1-2 2H3a2 2 0 0 1-2-2v-3" />
    <path stroke="#D7D7D8" stroke-miterlimit="10" stroke-width="2" d="M30 10h-6V4" />
  </symbol>

  <!-- календарь в фигуре  -->
  <symbol id="calendar-in-shape" viewBox="0 0 40 40" fill="none">
    <g clip-path="url(#clip0_264_1418)">
      <path
        d="M23.255 40.0622C22.959 40.0622 22.666 39.9532 22.43 39.7542L19.978 37.6732L17.568 39.7532C16.972 40.2572 16.037 40.0862 15.646 39.4112L14.04 36.6022L11.078 37.7172C10.323 37.9912 9.523 37.5102 9.385 36.7222L8.821 33.5302L5.662 33.5482C5.28 33.5482 4.922 33.3822 4.682 33.0942C4.441 32.8052 4.341 32.4162 4.405 32.0312L4.95 28.8292L1.974 27.7462C1.614 27.6132 1.334 27.3322 1.206 26.9782C1.078 26.6212 1.114 26.2222 1.306 25.8822L2.894 23.0662L0.463 21.0162C0.168 20.7622 0 20.4002 0 20.0212C0 19.6432 0.169 19.2822 0.463 19.0292L2.902 16.9362L1.307 14.1642C1.115 13.8252 1.078 13.4262 1.206 13.0702C1.333 12.7142 1.614 12.4342 1.976 12.2982L4.972 11.1792L4.406 8.0192C4.341 7.6302 4.441 7.2422 4.682 6.9532C4.922 6.6642 5.28 6.4982 5.664 6.4982L8.853 6.4882L9.385 3.3222C9.524 2.5352 10.332 2.0572 11.077 2.3282L14.08 3.4292L15.643 0.6392C16.036 -0.0428 16.972 -0.2098 17.567 0.2942L20.019 2.3722L22.428 0.2932C23.023 -0.2118 23.962 -0.0418 24.351 0.6372L25.957 3.4432L28.918 2.3282C29.669 2.0542 30.469 2.5332 30.61 3.3182L31.174 6.5142L34.334 6.4972C34.721 6.4982 35.079 6.6662 35.318 6.9582C35.557 7.2482 35.655 7.6362 35.59 8.0222L35.045 11.2172L38.022 12.2992C38.383 12.4342 38.663 12.7152 38.79 13.0702C38.918 13.4262 38.882 13.8242 38.69 14.1652L37.102 16.9822L39.534 19.0312C39.828 19.2822 39.998 19.6442 39.998 20.0232C39.998 20.4022 39.829 20.7662 39.532 21.0192L37.096 23.1112L38.69 25.8832C38.882 26.2252 38.918 26.6232 38.79 26.9802C38.662 27.3342 38.382 27.6152 38.021 27.7502L35.027 28.8702L35.59 32.0302C35.655 32.4132 35.557 32.8022 35.316 33.0932C35.077 33.3822 34.718 33.5502 34.332 33.5502L31.144 33.5602L30.611 36.7252C30.474 37.5122 29.666 37.9872 28.921 37.7202L25.916 36.6172L24.352 39.4102C24.116 39.8192 23.706 40.0622 23.255 40.0622ZM14.05 35.0702C14.586 35.0702 15.102 35.3662 15.362 35.8242L16.816 38.3682L19.042 36.4812C19.567 36.0362 20.436 36.0382 20.956 36.4812L23.182 38.3682L24.638 35.8212C24.981 35.2232 25.79 34.9192 26.434 35.1542L29.16 36.1542L29.672 33.2552C29.799 32.5532 30.445 32.0052 31.143 32.0052L34.034 31.9952L33.542 29.0922C33.425 28.3902 33.847 27.6522 34.502 27.4092L37.218 26.3922L35.778 23.8382C35.428 23.2222 35.575 22.3802 36.112 21.9212L38.324 20.0222L36.111 18.1222C35.576 17.6652 35.429 16.8222 35.778 16.2052L37.218 13.6502L34.501 12.6342C33.849 12.3922 33.426 11.6532 33.541 10.9532L34.035 8.0472L31.141 8.0382C30.429 8.0362 29.799 7.4982 29.672 6.7882L29.158 3.8772L26.438 4.8872C25.775 5.1282 24.978 4.8212 24.637 4.2202L23.181 1.6752L20.956 3.5622C20.434 4.0062 19.565 4.0052 19.042 3.5622L16.816 1.6792L15.362 4.2242C15.018 4.8232 14.21 5.1252 13.563 4.8902L10.837 3.8912L10.325 6.7892C10.202 7.4892 9.558 8.0392 8.858 8.0412L5.962 8.0502L6.457 10.9502C6.577 11.6502 6.157 12.3912 5.499 12.6362L2.78 13.6522L4.22 16.2062C4.568 16.8222 4.422 17.6642 3.887 18.1232L1.674 20.0232L3.887 21.9202C4.422 22.3782 4.569 23.2222 4.22 23.8382L2.779 26.3922L5.5 27.4102C6.165 27.6592 6.576 28.3822 6.458 29.0912L5.962 31.9962L8.858 32.0062C9.557 32.0062 10.202 32.5552 10.326 33.2572L10.84 36.1662L13.562 35.1542C13.718 35.0982 13.882 35.0702 14.05 35.0702Z"
        fill="currentColor" />
      <path d="M29.1998 27.2H10.7998V12H29.1998V27.2ZM12.3998 25.6H27.5998V13.6H12.3998V25.6Z" fill="currentColor" />
      <path d="M28.3996 16.7998H11.5996V18.3998H28.3996V16.7998Z" fill="currentColor" />
      <path d="M16.3998 10.3999H14.7998V14.3999H16.3998V10.3999Z" fill="currentColor" />
      <path d="M25.1996 10.3999H23.5996V14.3999H25.1996V10.3999Z" fill="currentColor" />
    </g>
    <defs>
      <clipPath id="clip0_264_1418">
        <rect width="40" height="40" fill="white" />
      </clipPath>
    </defs>
  </symbol>

  <!-- грузовик и коробка  -->
  <symbol id="truck-and-box" viewBox="0 0 40 40" fill="none">
    <g fill="currentColor" clip-path="url(#a)">
      <path
        d="M5.6 23.6H3.2v1.6h2.4v-1.6ZM2.947 19.559 0 18.577V14.8h1.6v2.623l1.853.618-.506 1.518ZM12 26h-1.6v-3.2H8V26H6.4v-4.8H12V26ZM15.2 23.6h-2.4v1.6h2.4v-1.6ZM15.453 19.559l-.506-1.518 1.853-.618V14.8h1.6v3.777l-2.947.982ZM6.4 30.8H.8v-3.2h1.6v1.6h2.4v-1.6h1.6v3.2ZM17.6 30.8H12v-3.2h1.6v1.6H16v-1.6h1.6v3.2ZM13.6 19.6H4.8v-4.8h8.8v4.8ZM6.4 18H12v-1.6H6.4V18Z" />
      <path
        d="M18.4 28.4H0v-4.8h.8V22.002c-.001-.997.522-1.656 1.034-2.168l.566-.565V8.399H4v11.532l-1.034 1.035c-.368.367-.566.64-.566 1.034v.839l.002 2.36H1.6v1.6h15.2v-1.6h-.802L16 22.84v-.841c0-.392-.198-.665-.566-1.032L14.4 19.93V8.4H16v10.869l.566.565c.512.512 1.035 1.17 1.034 2.168V23.6h.8v4.8Z" />
      <path
        d="m14.655 13.786-1.045-.976c-.323-.375-.697-.41-1.61-.41H6.4c-.913 0-1.287.035-1.611.41l-.061.063-.983.913-1.09-1.172.955-.886c.827-.928 1.869-.928 2.79-.928H12c.92 0 1.963 0 2.79.928l.954.886-1.09 1.172Z" />
      <path d="M18.4 14h-1.6V6H1.6v8H0V4.4h18.4V14ZM36.8 22h-1.6V6H21.6v16H20V4.4h16.8V22Z" />
      <path
        d="M37.6 21.2H18.4v1.6h19.2v-1.6ZM37.6 26.8H19.2v1.6h18.4v-1.6ZM27.2 11.6H24v1.6h3.2v-1.6ZM32.8 11.6h-3.2v1.6h3.2v-1.6ZM4.8 34H0v1.6h4.8V34ZM12.8 34H8v1.6h4.8V34ZM20.8 34H16v1.6h4.8V34ZM28.8 34H24v1.6h4.8V34ZM36.8 34H32v1.6h4.8V34Z" />
    </g>
    <defs>
      <clipPath id="a">
        <path fill="#fff" d="M0 0h40v40H0z" />
      </clipPath>
    </defs>
  </symbol>

  <!-- погрузчик  -->
  <symbol id="loader" viewBox="0 0 40 40" fill="none">
    <path fill="currentColor" d="M38.4 31.2h-16v-24h-1.6V5.6H24v24h14.4v1.6Z" />
    <path fill="currentColor"
      d="M23.2 28.8H20v1.6h3.2v-1.6ZM2.4 24.8H.8v-7.2h9.13l3.2 3.2H23.2v1.6H12.469l-3.2-3.2h-6.87v5.6ZM4 32.8h-.002A4.003 4.003 0 0 1 0 28.8a4.007 4.007 0 0 1 4-4.002c1.069 0 2.074.416 2.829 1.172A3.973 3.973 0 0 1 8 28.798 4.006 4.006 0 0 1 4 32.8Zm.002-6.402A2.407 2.407 0 0 0 1.6 28.8 2.401 2.401 0 0 0 3.998 31.2v.8l.001-.8A2.405 2.405 0 0 0 6.4 28.798c0-1.323-1.076-2.4-2.398-2.4Z" />
    <path fill="currentColor"
      d="M16.8 32.8h-.003a4.003 4.003 0 0 1-3.997-4 4.007 4.007 0 0 1 4-4.002c1.069 0 2.074.416 2.829 1.172a3.973 3.973 0 0 1 1.17 2.828 4.006 4.006 0 0 1-4 4.002Zm.002-6.402A2.407 2.407 0 0 0 14.4 28.8a2.401 2.401 0 0 0 2.398 2.399 2.406 2.406 0 0 0 2.402-2.402c0-1.323-1.076-2.4-2.398-2.4ZM20.117 22.08c-.009-.072-.94-7.1-6.055-10.88H7.2v7.2H5.6V9.6h8.974l.208.146c5.882 4.157 6.883 11.814 6.922 12.138l-1.587.196Z" />
    <path fill="currentColor"
      d="M13.6 28.8H7.2v1.6h6.4v-1.6ZM6.4 9.6H4.8v1.6h1.6V9.6ZM32 28.8h-1.6v-2.4h-5.6v-1.6H32v4Z" />
    <path fill="currentColor" d="M32 25.6h-1.6v-2.4h-5.6v-1.6H32v4Z" />
    <path fill="currentColor" d="M32 22.4h-1.6V20h-5.6v-1.6H32v4Z" />
    <path fill="currentColor" d="M32 19.2h-1.6v-2.4h-5.6v-1.6H32v4Z" />
    <path fill="currentColor" d="M32 16h-1.6v-2.4h-5.6V12H32v4ZM38.4 28.8h-1.6v-2.4h-5.6v-1.6h7.2v4Z" />
    <path fill="currentColor" d="M38.4 25.6h-1.6v-2.4h-5.6v-1.6h7.2v4Z" />
    <path fill="currentColor" d="M38.4 22.4h-1.6V20h-5.6v-1.6h7.2v4Z" />
    <path fill="currentColor" d="M38.4 19.2h-1.6v-2.4h-5.6v-1.6h7.2v4Z" />
  </symbol>
  <!-- палец вверх  -->
  <symbol id="thumbs-up" viewBox="0 0 40 40" fill="none">
    <path fill="currentColor"
      d="M32.638 31.215H22.4c-2.027 0-2.978-.56-3.742-1.013-.577-.34-.994-.587-1.858-.587h-2.4v-15.2h4c1.166 0 6.4-4.982 6.4-8.265V5.096c0-.846.478-1.534 1.249-1.798.99-.34 2.178.104 2.95 1.104 1.085 1.403 1.673 2.683 1.673 5.42 0 1.791-.546 3.11-.872 3.898-.083.202-.187.454-.202.537l.002 2.157c0 4.103-2.46 7.781-6.12 9.15l-.56-1.498C25.91 22.946 28 19.8 28 16.414v-2.197c0-.332.134-.657.32-1.108.299-.723.75-1.814.75-3.287 0-2.304-.43-3.268-1.337-4.44-.435-.562-.936-.65-1.167-.569-.08.027-.166.073-.166.283V6.15c0 3.921-5.68 9.865-8 9.865H16v12h.8c1.302 0 2.03.43 2.67.81.689.406 1.34.79 2.93.79h10.238c1.536 0 2.33-.543 2.579-1.759.014-.07 1.452-7.235 1.585-9.487.05-.875-.081-1.466-.404-1.81-.346-.365-1-.543-1.998-.543h-4v-1.6h4c1.484 0 2.489.333 3.162 1.046.642.681.916 1.663.836 3.001-.14 2.363-1.553 9.412-1.614 9.711-.282 1.388-1.23 3.042-4.146 3.042Z" />
    <path fill="currentColor" d="M16 31.215H7.2v-1.6h7.2v-15.2H3.2v-1.6H16v18.4Z" />
    <path fill="currentColor"
      d="M6.4 17.615H0v1.6h6.4v-1.6ZM18.4 7.215H12v1.6h6.4v-1.6ZM27.2 35.215H16v1.6h11.2v-1.6ZM14.4 35.215h-1.6v1.6h1.6v-1.6ZM11.2 35.215H9.6v1.6h1.6v-1.6ZM10.4 7.215H8.8v1.6h1.6v-1.6Z" />
  </symbol>

  <!-- грузовичок вид сбоку  -->
  <symbol id="truck-side-view" viewBox="0 0 40 40" fill="none">
    <path
      d="M35.9998 30.4141H34.3998V28.8141H35.9998C36.4418 28.8141 36.7998 28.4541 36.7998 28.0121V22.5821C36.7998 21.9391 36.5298 21.6141 35.9998 21.6141H34.7298L31.7778 16.3021C31.6658 16.1461 31.4188 16.0141 31.1548 16.0141H24.7998V14.4141H31.1538C31.9468 14.4141 32.6888 14.8061 33.1368 15.4621L35.6698 20.0141H35.9998C37.4348 20.0141 38.3998 21.0461 38.3998 22.5821V28.0121C38.3998 29.3371 37.3228 30.4141 35.9998 30.4141Z"
      fill="currentColor" />
    <path d="M25.6 30.4142H12V28.8142H24V9.61416H1.6V28.8142H5.6V30.4142H0V8.01416H25.6V30.4142Z" fill="currentColor" />
    <path
      d="M31.193 33.6139C28.983 33.6139 27.186 31.8229 27.186 29.6219C27.186 27.4199 28.983 25.6289 31.193 25.6289C33.402 25.6289 35.2 27.4189 35.2 29.6209C35.2 31.8219 33.402 33.6139 31.193 33.6139ZM31.193 27.2279C29.866 27.2279 28.786 28.3019 28.786 29.6209C28.786 30.9399 29.866 32.0139 31.193 32.0139C32.52 32.0139 33.6 30.9409 33.6 29.6209C33.6 28.3009 32.52 27.2279 31.193 27.2279Z"
      fill="currentColor" />
    <path
      d="M8.8068 33.6139C6.5978 33.6139 4.7998 31.8219 4.7998 29.6209C4.7998 27.4189 6.5978 25.6279 8.8068 25.6279C11.0168 25.6279 12.8138 27.4189 12.8138 29.6209C12.8138 31.8219 11.0168 33.6139 8.8068 33.6139ZM8.8068 27.2279C7.4798 27.2279 6.3998 28.3019 6.3998 29.6209C6.3998 30.9399 7.4798 32.0139 8.8068 32.0139C10.1338 32.0139 11.2138 30.9399 11.2138 29.6209C11.2138 28.3019 10.1338 27.2279 8.8068 27.2279Z"
      fill="currentColor" />
    <path d="M27.9998 28.814H24.7998V30.414H27.9998V28.814Z" fill="currentColor" />
    <path d="M32.1889 22.4142H26.3999V20.8142H31.8109L33.4109 20.0142H35.1999V21.6142H33.7889L32.1889 22.4142Z"
      fill="currentColor" />
  </symbol>

  <!-- рука и доллары  -->
  <symbol id="hand-and-dollars" viewBox="0 0 40 40" fill="none">
    <g fill="currentColor" clip-path="url(#a)">
      <path d="M38.4 20.814h-9.6v-1.6h8v-16.8H1.6v16.8h11.2v1.6H0v-20h38.4v20Z" />
      <path
        d="M32.8 17.614h-4v-1.6h2.502a3.212 3.212 0 0 1 2.298-2.299V7.913a3.212 3.212 0 0 1-2.298-2.299H7.119C6.862 6.826 6.012 7.677 4.8 7.934v5.782a3.212 3.212 0 0 1 2.299 2.3H12.8v1.6H5.6v-.8c0-.883-.718-1.6-1.6-1.6h-.8v-8.8H4c1.444 0 1.6-1.119 1.6-1.6v-.8h27.2v.8c0 .882.718 1.6 1.6 1.6h.8v8.8h-.8c-.882 0-1.6.717-1.6 1.6v.798Z" />
      <path
        d="M11.2 10.414H9.6v1.6h1.6v-1.6ZM28 10.414h-1.6v1.6H28v-1.6ZM22.846 13.107l-1.488-.586c.162-.41.244-.85.244-1.307.001-.87-.3-1.684-.848-2.293-.526-.585-1.219-.907-1.951-.908-1.544 0-2.801 1.434-2.802 3.198 0 .458.082.9.244 1.31l-1.489.585a5.13 5.13 0 0 1-.356-1.896c.002-2.646 1.977-4.797 4.402-4.797 1.192 0 2.308.511 3.141 1.437.812.904 1.259 2.1 1.258 3.364a5.12 5.12 0 0 1-.355 1.893ZM15.2 39.214h-1.6v-1.948c0-.482-.712-1.131-1.97-2.236-1.081-.951-1.685-2.654-2.218-4.157-.308-.871-.6-1.692-.92-2.195-1.2-1.887-2.237-3.516-1.178-4.691.518-.575 1.561-.857 2.532-.681.752.135 2.138.672 2.964 2.746.177.443.334.773.467 1.016.17-.371.323-.911.323-1.658v-7.796c0-1.323 1.077-2.4 2.4-2.4s2.4 1.077 2.4 2.4h-1.6c0-.44-.359-.8-.8-.8-.441 0-.8.36-.8.8v7.796c0 2.48-1.287 3.502-1.434 3.61a.804.804 0 0 1-.781.096c-.37-.152-.958-.705-1.663-2.472-.396-.995-.986-1.601-1.708-1.753-.551-.116-1.016.072-1.115.17-.241.269.951 2.142 1.342 2.757.417.657.738 1.562 1.078 2.52.467 1.319.998 2.815 1.767 3.49 1.568 1.378 2.514 2.209 2.514 3.438v1.948Z" />
      <path
        d="M21.6 24.814H20v-10.4c0-.44-.359-.8-.8-.8-.441 0-.8.36-.8.8v10.4h-1.6v-10.4c0-1.323 1.077-2.4 2.4-2.4s2.4 1.077 2.4 2.4v10.4Z" />
      <path d="M24.8 20.014h-1.6v-3.2a.801.801 0 0 0-1.6 0H20c0-1.323 1.077-2.4 2.4-2.4s2.4 1.077 2.4 2.4v3.2Z" />
      <path
        d="M26.4 39.214h-1.6v-2.14c0-.752.374-1.297.734-1.825.426-.623.866-1.266.866-2.457V20.014a.801.801 0 0 0-1.6 0v4.8h-1.6v-4.8c0-1.323 1.077-2.4 2.4-2.4s2.4 1.077 2.4 2.4v12.778c0 1.685-.662 2.653-1.146 3.359-.29.426-.454.678-.454.923v2.14Z" />
    </g>
    <defs>
      <clipPath id="a">
        <path fill="#fff" d="M0 0h40v40H0z" />
      </clipPath>
    </defs>
  </symbol>

  <!-- папка для документов  -->
  <symbol id="folder-documents" viewBox="0 0 40 40" fill="none">
    <path fill="currentColor"
      d="M32.4 38h-24A2.403 2.403 0 0 1 6 35.6V8.869L12.869 2H32.4c1.323 0 2.4 1.077 2.4 2.4v31.2c0 1.323-1.077 2.4-2.4 2.4ZM7.6 9.532V35.6a.8.8 0 0 0 .8.8h24a.8.8 0 0 0 .8-.8V4.4a.8.8 0 0 0-.8-.8H13.531L7.6 9.532Z" />
    <path fill="currentColor" d="M14.8 10.8H9.2V9.2h4v-4h1.6v5.6Z" />
  </symbol>

  <!-- векторные фигуры на задний фон  -->
  <symbol id="figure-1" viewBox="0 0 88 88" fill="none">
    <path
      d="M26.6881 83.5805C-71.852 -40.2995 138.869 -10.3542 76.0954 69.2763C63.7158 84.9805 34.8781 93.8766 26.6881 83.5805Z"
      fill="currentColor" />
  </symbol>

  <symbol id="figure-2" viewBox="0 0 88 88" fill="none">
    <path fill="currentColor"
      d="M11.6 40.5c4.418-9.579 3.686-29.442 29.095-38.746 43.527-15.939 77.65 81.899 5.29 85.968C-26.375 91.79 7.182 50.079 11.6 40.5Z" />
  </symbol>

  <symbol id="figure-3" viewBox="0 0 88 88" fill="none">
    <path fill="currentColor"
      d="M21.129 9.07c15.679-29.019 89.548 18.243 59.94 48.432-6.766 6.897-15.634 8.316-23.569 14.79-9.168 7.477-8.51 25.071-39.2 9.425C-15.902 64.28 5.45 38.089 21.13 9.07Z" />
  </symbol>

  <symbol id="figure-4" viewBox="0 0 88 89" fill="none">
    <path fill="currentColor"
      d="M24.121 87.92C14.435 86.886-4.022 77.915.785 60.794 3.375 51.569 8.909 42.945 10.5 33.5 13.317 16.777 5.982 6.2 32.197.541c5.86-1.264 13.336-.504 17.99 4.329C60.31 15.387 57.328 17.95 67.5 26c8.025 6.351 18.99 10.711 20.187 20.652 3.088 25.663-17.266 42.124-35.367 40.692C46.916 86.916 44.978 83 40 83c-5.679 0-6.192 5.955-15.879 4.92Z" />
  </symbol>

  <symbol id="figure-5" viewBox="0 0 88 88" fill="none">
    <path fill="currentColor"
      d="M4.42 26.688c123.879-98.54 93.934 112.181 14.304 49.407-15.705-12.38-24.6-41.217-14.305-49.407Z" />
  </symbol>

  <symbol id="figure-6" viewBox="0 0 88 88" fill="none">
    <path fill="currentColor"
      d="M20.678 81.224C9.954 75.725 0 69.44 0 43.808c0-38.462 83.645-73.19 87.8-4.986 4.156 68.204-57.93 47.114-67.122 42.401Z" />
  </symbol>

  <symbol id="figure-7" viewBox="0 0 88 89" fill="none">
    <path fill="currentColor"
      d="M31.951 87.18C1.251 91.9 3.501 72.067.508 60.058c-4.185-16.79 18.865-23.143 18.865-22.076 0 12.47-8.287-34.188 3.774-37.213 17.387-4.36 55.866 10.312 60.999 30.906 2.173 8.72-13.362 12.926-16.35 18.922-2.15 4.312 13.9 8.264 16.979 11.352 17.068 17.12-38.482 32.423-52.824 25.23Z" />
  </symbol>

  <!-- кружок с волнистой линией  -->
  <symbol id="circle-wavy" viewBox="0 0 64 64" fill="none">
    <path fill="currentColor"
      d="M30.419.734a2.071 2.071 0 0 1 3.162 0l.044.05c.723.856 1.995.982 2.871.284l.053-.042a2.071 2.071 0 0 1 3.102.617l.032.059a2.071 2.071 0 0 0 2.762.837l.059-.03a2.071 2.071 0 0 1 2.922 1.21l.02.064a2.071 2.071 0 0 0 2.545 1.36l.065-.018a2.071 2.071 0 0 1 2.63 1.757l.007.066a2.071 2.071 0 0 0 2.23 1.83l.067-.005a2.071 2.071 0 0 1 2.237 2.237l-.006.066a2.071 2.071 0 0 0 1.83 2.231l.067.008a2.071 2.071 0 0 1 1.758 2.63l-.019.064a2.071 2.071 0 0 0 1.36 2.544l.064.02a2.071 2.071 0 0 1 1.21 2.923l-.03.06a2.07 2.07 0 0 0 .837 2.76l.059.033c1.12.62 1.415 2.1.617 3.102l-.042.053a2.071 2.071 0 0 0 .283 2.871l.051.044a2.071 2.071 0 0 1 0 3.162l-.05.044a2.071 2.071 0 0 0-.284 2.871l.042.053a2.071 2.071 0 0 1-.617 3.102l-.059.032a2.07 2.07 0 0 0-.837 2.762l.03.059a2.071 2.071 0 0 1-1.21 2.922l-.064.02a2.071 2.071 0 0 0-1.36 2.545l.019.065a2.071 2.071 0 0 1-1.758 2.63l-.066.007a2.071 2.071 0 0 0-1.83 2.23l.005.067a2.071 2.071 0 0 1-2.237 2.237l-.066-.006a2.071 2.071 0 0 0-2.231 1.83l-.008.067a2.071 2.071 0 0 1-2.63 1.758l-.064-.019a2.071 2.071 0 0 0-2.544 1.36l-.02.064a2.071 2.071 0 0 1-2.923 1.21l-.06-.03a2.07 2.07 0 0 0-2.76.837l-.033.059a2.071 2.071 0 0 1-3.102.617l-.053-.042a2.071 2.071 0 0 0-2.871.283l-.044.051a2.071 2.071 0 0 1-3.163 0l-.043-.05a2.071 2.071 0 0 0-2.871-.284l-.053.042a2.071 2.071 0 0 1-3.102-.617l-.032-.059a2.07 2.07 0 0 0-2.762-.837l-.059.03a2.071 2.071 0 0 1-2.922-1.21l-.02-.064a2.071 2.071 0 0 0-2.545-1.36l-.065.019a2.071 2.071 0 0 1-2.63-1.758l-.007-.066a2.071 2.071 0 0 0-2.23-1.83l-.067.005a2.071 2.071 0 0 1-2.237-2.237l.006-.066a2.071 2.071 0 0 0-1.83-2.231l-.067-.008a2.071 2.071 0 0 1-1.757-2.63l.018-.064a2.071 2.071 0 0 0-1.36-2.544l-.064-.02a2.071 2.071 0 0 1-1.21-2.923l.03-.06a2.071 2.071 0 0 0-.837-2.76l-.059-.033a2.071 2.071 0 0 1-.617-3.102l.042-.053a2.071 2.071 0 0 0-.283-2.871l-.051-.044a2.071 2.071 0 0 1 0-3.163l.05-.043c.856-.723.982-1.995.284-2.871l-.042-.053a2.071 2.071 0 0 1 .617-3.102l.059-.032a2.071 2.071 0 0 0 .837-2.762l-.03-.059a2.071 2.071 0 0 1 1.21-2.922l.064-.02a2.071 2.071 0 0 0 1.36-2.545l-.018-.065a2.071 2.071 0 0 1 1.757-2.63l.066-.007a2.071 2.071 0 0 0 1.83-2.23l-.005-.067a2.071 2.071 0 0 1 2.237-2.237l.066.006a2.071 2.071 0 0 0 2.231-1.83l.008-.067a2.071 2.071 0 0 1 2.63-1.757l.064.018a2.071 2.071 0 0 0 2.544-1.36l.02-.064a2.071 2.071 0 0 1 2.923-1.21l.06.03a2.071 2.071 0 0 0 2.76-.837l.033-.059a2.071 2.071 0 0 1 3.102-.617l.053.042a2.071 2.071 0 0 0 2.871-.283l.044-.051Z" />
  </symbol>


  <!-- иконки в блоке с контактами  -->
  <!-- контакты геометка  -->
  <symbol id="contacts-address" viewBox="0 0 24 25" fill="none">
    <path fill="#fff" stroke="#F59829" stroke-miterlimit="10" stroke-width="2"
      d="M12 1c4.418 0 8 3.461 8 7.73.002 1.846-.281 3.126-1.367 4.806C17.547 15.214 12 23 12 23s-5.547-7.786-6.633-9.464C4.28 11.856 3.997 10.576 4 8.73 4 4.46 7.582 1 12 1Z" />
    <circle cx="12" cy="9" r="3" stroke="#F59829" stroke-width="2" />
  </symbol>
  <!-- контакты конверт  -->
  <symbol id="contacts-mail" viewBox="0 0 24 24" fill="none">
    <path fill="#fff" stroke="#F59829" stroke-miterlimit="10" stroke-width="2"
      d="M23 18.968c0 .57-.448 1.032-1 1.032H2c-.552 0-1-.462-1-1.032V5.032C1 4.462 1.448 4 2 4h20c.552 0 1 .462 1 1.032v13.936Z" />
    <path stroke="#F59829" stroke-linecap="round" stroke-miterlimit="10" stroke-width="2"
      d="m22 5-7.525 7.8a3.423 3.423 0 0 1-4.95 0L2 5M3 17.935l4.5-4.645M21 17.935l-4.5-4.645" />
  </symbol>
  <!-- контакты телефонная трубка  -->
  <symbol id="contacts-phone" viewBox="0 0 26 26" fill="none">
    <path fill="#fff" stroke="#F59829" stroke-miterlimit="10" stroke-width="2"
      d="M8.902 17.098c5.608 5.608 10.964 6.794 12.94 6.902 1.265-1.851 1.798-3.38 2.158-4.745-1.366-1.33-3.354-2.687-5.177-3.45l-2.157 2.156c-.736-.198-2.759-1.034-5.176-3.451-2.417-2.418-3.253-4.44-3.45-5.176l2.156-2.157C9.432 5.354 8.076 3.367 6.745 2 5.379 2.36 3.85 2.893 2 4.157c.108 1.977 1.294 7.333 6.902 12.941Z" />
  </symbol>

  <symbol id="verygood" viewBox="0 0 38 38" fill="none">
    <g clip-path="url(#a)">
      <path fill="#fff"
        d="M6.154 19.1s1.026-.108 2.97-3.218c0 0 .044-.054.117-.159.965 4.253 5.608 3.563 5.608 3.563l.445-1.648c-3.119.643-3.16-2.855-3.16-2.855l4.78 1.568a3.14 3.14 0 0 0 .808-1.585 15.118 15.118 0 0 1-.524 4.52s2.889-1.045 4.887.778c0 0-.19-3.167-1.19-6.441.573-.334 1.798-.827 2.015.919.283 2.292 3.523 5.467 6.56 1.527 0 0-1.902 1.045-2.955-1.126-.986-2.03-1.369-4.694-4.032-3.912 1.525-1.148 2.95-3.006 1.154-4.733-2.393-2.304-6.127.446-6.783.964a5.043 5.043 0 0 0-1.398-.602s1.54 2.509 2.087 6.133c-.351-.937-1.083-1.804-2.208-2.354-1.341-.655-3.122-.537-4.44.34.279-2.192.213-5.13-.744-8.89L5.506 4.194s3.618 6.862.324 11.42c0 0-4.212-2.52-1.566-7.614l-2.7-.482S.172 9.077.348 11.526c.206 2.83 2.194 6.661 5.806 7.573ZM21.817 7.816c1.053 1.283-.524 2.434-1.891 2.683 0 0-.251-1.516-1.162-2.502 0 0 2-1.465 3.053-.181Zm-6.933 3.788c.875.295 1.354 1.273 1.185 2.298l-3.495-1.262c.508-.87 1.458-1.324 2.31-1.036Zm16.76 3.58h.06c-.518 1.768-1.444 2.778-2.598 3.511-2.106 1.341-4.86.59-4.86.59.621 1.717 7.399 4.933 9.505-.75 2.106-5.683-1.701-9.57-1.701-9.57.196 2.352.118 4.132-.17 5.51-.556.08-3.503.245-2.18-5.618l-3.024-1.125s-1.512 8.042 4.969 7.452Zm2.188 8.283c-3.591-.859-5.886.242-5.886.242s2.16.67 2.538 4.13c.379 3.458-3.429 5.843-3.429 5.843s4.212.777 7.372-.536c3.158-1.315 3.24-4.532 3.24-4.987 0-.456-.243-3.833-3.835-4.692Zm-.909 7.295c-.063.001-.126 0-.19-.003.55-.563.887-1.448.845-2.433-.052-1.199-.652-2.206-1.467-2.638.187-.065.383-.107.588-.114 1.267-.054 2.344 1.063 2.405 2.496.063 1.433-.914 2.638-2.18 2.692Zm-4.1-2.51c0-2.598-2.15-4.705-4.8-4.705-.262 0-.52.023-.77.062a4.657 4.657 0 0 0-4.313-2.876c-2.37 0-4.326 1.759-4.618 4.034-2.056.373-4.278 1.67-5.021 5.336l2.47.562s.493-1.365 1.814-2.592l.05.14s.324 4.021-2.958 4.503c-3.28.483-5.265-3.095-4.253-5.467 1.013-2.373 3.079-1.743 3.079-1.743l3.996-3.727L12 21.163c-4.226-1.474-9.667 1.26-9.991 7.253-.324 5.99 6.44 9.65 11.139 6.594 2.545-1.656 3.045-4.09 2.97-5.973a4.653 4.653 0 0 0 3.427.906c.694 1.762 2.437 3.01 4.478 3.01 2.65 0 4.8-2.106 4.8-4.7Zm-8.851-2.523c-.046.071-.09.144-.132.217a1.682 1.682 0 0 1-2.443.309c.335-.05.686-.086 1.057-.094l-.121-1.206s-.607-.18-1.511-.274c.139-.78.826-1.375 1.653-1.375.928 0 1.682.746 1.682 1.668a1.658 1.658 0 0 1-.185.755Zm3.018 3.891c-.5 0-.95-.217-1.26-.558a4.624 4.624 0 0 0 1.767-2.743 1.69 1.69 0 0 1 1.194 1.612c0 .932-.761 1.69-1.7 1.69Z" />
    </g>
    <defs>
      <clipPath id="a">
        <path fill="#fff" d="M.333.333h37.333v37.333H.333z" />
      </clipPath>
    </defs>
  </symbol>

</svg>
