<svg width="47" height="64" viewBox="0 0 47 64" fill="none" xmlns="http://www.w3.org/2000/svg">
<path fill-rule="evenodd" clip-rule="evenodd" d="M47 22.4871C47 10.0683 36.4787 0 23.5 0C10.5214 0 8.96082e-05 10.0683 8.96082e-05 22.4871C-0.0099818 27.8577 0.825942 31.5806 4.01522 36.4672C7.2045 41.3505 23.5 64 23.5 64C23.5 64 39.7956 41.3505 42.9849 36.4672C46.1741 31.5806 47.0067 27.8577 47 22.4871ZM23.5 34.6669C29.804 34.6669 34.9143 29.5928 34.9143 23.3335C34.9143 17.0743 29.804 12.0002 23.5 12.0002C17.1961 12.0002 12.0857 17.0743 12.0857 23.3335C12.0857 29.5928 17.1961 34.6669 23.5 34.6669Z" fill="#FF5843"/>
</svg>
