<?xml version="1.0" encoding="utf-8"?>
<!-- Generator: Adobe Illustrator 16.0.3, SVG Export Plug-In . SVG Version: 6.00 Build 0)  -->
<!DOCTYPE svg PUBLIC "-//W3C//DTD SVG 1.1//EN" "http://www.w3.org/Graphics/SVG/1.1/DTD/svg11.dtd">
<svg version="1.1" id="Layer_1" xmlns="http://www.w3.org/2000/svg" xmlns:xlink="http://www.w3.org/1999/xlink" x="0px" y="0px"
	 width="16px" height="16px" viewBox="0 0 16 16" enable-background="new 0 0 16 16" xml:space="preserve">
<g>
	<polygon fill-rule="evenodd" clip-rule="evenodd" fill="#FF5843" points="1.609,4.201 8.001,7.836 8.001,15.403 1.609,11.83 	"/>
	<path fill="#FF5843" d="M1.975,3.724L8.305,7.3c0.183,0.119,0.305,0.298,0.305,0.536v7.567C8.609,15.762,8.305,16,8.001,16
		c-0.122,0-0.244,0-0.365-0.06l-6.331-3.575C1.122,12.246,1,12.008,1,11.83V4.201c0-0.298,0.305-0.596,0.609-0.596
		C1.73,3.605,1.853,3.665,1.975,3.724L1.975,3.724z M7.392,8.134l-5.174-2.92v6.257l5.174,2.92V8.134z"/>
	<path fill="#FF5843" d="M13.782,5.214l-5.173,2.92v6.257l5.173-2.92V5.214z M7.696,7.3l6.331-3.576
		c0.121-0.059,0.183-0.119,0.365-0.119C14.696,3.605,15,3.903,15,4.201v7.629c0,0.178-0.121,0.416-0.304,0.535L8.305,15.94
		C8.244,16,8.122,15.403,8.001,15.403c-0.365,0-0.609,0.358-0.609,0V7.836C7.392,7.598,7.514,7.419,7.696,7.3L7.696,7.3z"/>
	<path fill="#FF5843" d="M1.305,3.724l6.392-3.635c0.183-0.119,0.426-0.119,0.608,0l6.392,3.635c0.244,0.12,0.365,0.477,0.183,0.775
		c-0.061,0.119-0.122,0.179-0.243,0.239L8.305,8.313c-0.183,0.119-0.426,0.119-0.608,0L1.305,4.738C1,4.559,0.939,4.201,1.122,3.903
		C1.122,3.844,1.244,3.724,1.305,3.724L1.305,3.724z M8.001,1.281l-5.175,2.92l5.175,2.92l5.174-2.92L8.001,1.281z"/>
</g>
</svg>
