<svg xmlns="http://www.w3.org/2000/svg" width="72" height="72" fill="none"><path fill="#FF5843" d="M34.435.982c.633-1.31 2.497-1.31 3.13 0a1.738 1.738 0 0 0 2.975.26c.85-1.18 2.686-.855 3.082.543a1.738 1.738 0 0 0 2.884.773c1.043-1.013 2.795-.376 2.941 1.07a1.738 1.738 0 0 0 2.707 1.263c1.202-.817 2.817.115 2.71 1.565a1.738 1.738 0 0 0 2.447 1.712c1.326-.595 2.754.603 2.397 2.012a1.738 1.738 0 0 0 2.112 2.112c1.41-.357 2.607 1.071 2.011 2.398-.54 1.2.4 2.542 1.713 2.446 1.45-.107 2.382 1.508 1.565 2.71a1.738 1.738 0 0 0 1.262 2.706c1.447.147 2.084 1.9 1.07 2.942a1.738 1.738 0 0 0 .774 2.884c1.398.396 1.722 2.232.543 3.082a1.738 1.738 0 0 0 .26 2.975c1.31.633 1.31 2.497 0 3.13a1.738 1.738 0 0 0-.26 2.975c1.18.85.856 2.686-.543 3.082a1.738 1.738 0 0 0-.773 2.884c1.013 1.043.376 2.795-1.07 2.941a1.738 1.738 0 0 0-1.263 2.707c.817 1.202-.115 2.817-1.565 2.71a1.738 1.738 0 0 0-1.712 2.447c.595 1.326-.603 2.754-2.012 2.397a1.738 1.738 0 0 0-2.112 2.112c.357 1.41-1.071 2.607-2.398 2.011-1.2-.54-2.542.4-2.446 1.713.107 1.45-1.508 2.382-2.71 1.565a1.738 1.738 0 0 0-2.707 1.262c-.146 1.447-1.898 2.084-2.94 1.07a1.738 1.738 0 0 0-2.885.774c-.396 1.398-2.232 1.722-3.082.543a1.738 1.738 0 0 0-2.975.26c-.633 1.31-2.497 1.31-3.13 0a1.738 1.738 0 0 0-2.975-.26c-.85 1.18-2.686.856-3.082-.543a1.738 1.738 0 0 0-2.884-.773c-1.043 1.013-2.795.376-2.942-1.07a1.738 1.738 0 0 0-2.706-1.263c-1.202.817-2.817-.115-2.71-1.565a1.738 1.738 0 0 0-2.446-1.712c-1.327.595-2.755-.603-2.398-2.012a1.738 1.738 0 0 0-2.112-2.112c-1.41.357-2.607-1.071-2.012-2.398.54-1.2-.4-2.542-1.712-2.446-1.45.107-2.382-1.508-1.565-2.71a1.738 1.738 0 0 0-1.262-2.707c-1.447-.146-2.084-1.898-1.07-2.94a1.738 1.738 0 0 0-.774-2.885C.387 43.226.063 41.39 1.242 40.54a1.738 1.738 0 0 0-.26-2.975c-1.31-.633-1.31-2.497 0-3.13a1.738 1.738 0 0 0 .26-2.975c-1.18-.85-.855-2.686.543-3.082a1.738 1.738 0 0 0 .773-2.884c-1.013-1.043-.376-2.795 1.07-2.942a1.738 1.738 0 0 0 1.263-2.706c-.817-1.202.115-2.817 1.565-2.71a1.738 1.738 0 0 0 1.712-2.446c-.595-1.327.603-2.755 2.012-2.398a1.738 1.738 0 0 0 2.112-2.112c-.357-1.41 1.071-2.607 2.398-2.012 1.2.54 2.542-.4 2.446-1.712-.107-1.45 1.508-2.382 2.71-1.565a1.738 1.738 0 0 0 2.706-1.262c.147-1.447 1.9-2.084 2.942-1.07a1.738 1.738 0 0 0 2.884-.774C28.774.387 30.61.063 31.46 1.242a1.738 1.738 0 0 0 2.975-.26Z"/><path fill="#fff" d="M41.503 23.836a12.718 12.718 0 0 1 1.8-.576 7.271 7.271 0 0 1 1.836-.216c1.152 0 2.22.192 3.204.576.984.36 1.836.9 2.556 1.62a7.155 7.155 0 0 1 1.728 2.52c.432.984.648 2.088.648 3.312 0 1.488-.252 2.808-.756 3.96-.48 1.152-1.152 2.124-2.016 2.916-.84.792-1.836 1.404-2.988 1.836-1.128.408-2.34.612-3.636.612-1.104 0-2.124-.156-3.06-.468-.912-.336-1.704-.78-2.376-1.332a6.46 6.46 0 0 1-1.62-1.98 5.767 5.767 0 0 1-.612-2.448h2.628c.024.648.156 1.26.396 1.836.24.552.564 1.044.972 1.476a4.85 4.85 0 0 0 1.548.972c.6.24 1.284.36 2.052.36.696 0 1.392-.132 2.088-.396a5.271 5.271 0 0 0 1.872-1.332c.576-.624 1.032-1.404 1.368-2.34.36-.96.54-2.112.54-3.456 0-1.896-.504-3.432-1.512-4.608-1.008-1.176-2.52-1.764-4.536-1.764-.48 0-1.14.048-1.98.144-.84.096-1.776.408-2.808.936L42.043 14.8H52.95l-.72 1.98h-8.64l-2.088 7.056ZM34.053 40h-16.56l6.804-7.596c.6-.72 1.236-1.5 1.908-2.34a23.352 23.352 0 0 0 1.908-2.664 17.317 17.317 0 0 0 1.44-2.916 8.63 8.63 0 0 0 .576-3.096c0-1.656-.444-2.976-1.332-3.96-.864-.984-1.98-1.476-3.348-1.476-.816 0-1.5.156-2.052.468a4.165 4.165 0 0 0-1.332 1.26c-.336.504-.588 1.104-.756 1.8-.168.672-.288 1.38-.36 2.124h-3.6a6.73 6.73 0 0 1 .612-2.844 6.995 6.995 0 0 1 1.692-2.304 8.186 8.186 0 0 1 2.592-1.512c.984-.384 2.052-.576 3.204-.576 1.296 0 2.46.192 3.492.576 1.032.36 1.896.864 2.592 1.512a6.466 6.466 0 0 1 1.584 2.268c.384.84.576 1.728.576 2.664 0 1.176-.12 2.184-.36 3.024a8.486 8.486 0 0 1-1.08 2.448c-.48.768-1.116 1.584-1.908 2.448a249.71 249.71 0 0 1-2.808 3.096l-4.68 5.004h11.196V40ZM49.736 56.244c0-.264.096-.492.288-.684a.934.934 0 0 1 .684-.288c.264 0 .492.096.684.288.192.192.288.42.288.684a.934.934 0 0 1-.288.684.934.934 0 0 1-.684.288.934.934 0 0 1-.684-.288.934.934 0 0 1-.288-.684Zm1.35-1.656h-.846L49.682 44.4h1.98l-.576 10.188ZM42.08 57v-8.28h-3.6V48h8.73v.72h-3.6V57h-1.53ZM37.215 52.896h-6.84c0 .732.108 1.332.324 1.8.216.468.486.834.81 1.098.324.264.672.45 1.044.558.384.096.744.144 1.08.144.3 0 .57-.03.81-.09.252-.072.492-.168.72-.288.228-.12.45-.27.666-.45.228-.18.468-.378.72-.594l.576.576a5.036 5.036 0 0 1-1.692 1.17 5.577 5.577 0 0 1-2.124.396c-.792 0-1.482-.132-2.07-.396a4.372 4.372 0 0 1-1.44-1.08 4.896 4.896 0 0 1-.846-1.53 5.88 5.88 0 0 1-.27-1.764c0-.72.108-1.362.324-1.926a4.162 4.162 0 0 1 .9-1.458 3.703 3.703 0 0 1 1.35-.918 4.338 4.338 0 0 1 1.692-.324c.576 0 1.122.096 1.638.288.516.192.966.48 1.35.864.396.384.708.87.936 1.458.228.588.342 1.284.342 2.088v.378Zm-6.84-.72h5.274c0-1.164-.24-2.076-.72-2.736-.468-.672-1.128-1.008-1.98-1.008-.444 0-.828.108-1.152.324-.324.204-.594.48-.81.828-.204.348-.36.75-.468 1.206a6.542 6.542 0 0 0-.144 1.386ZM23.772 48l3.654 9h-1.62l-2.88-7.218h-.108l-2.07 5.202c-.168.432-.33.792-.486 1.08a3.555 3.555 0 0 1-.45.684 1.219 1.219 0 0 1-.504.342c-.18.072-.384.108-.612.108-.504 0-.894-.132-1.17-.396l.288-.954c.108.096.252.192.432.288.18.096.354.144.522.144a.62.62 0 0 0 .396-.144c.132-.108.246-.24.342-.396.096-.156.18-.318.252-.486.072-.18.138-.336.198-.468L22.692 48h1.08Z"/></svg>